<?xml version="1.0" encoding="UTF-8"?>
<svg xmlns="http://www.w3.org/2000/svg" viewBox="0 0 1400 900" font-family="system-ui, -apple-system, 'Segoe UI', Roboto, sans-serif">
  <defs>
    <linearGradient id="bg3" x1="0" y1="0" x2="0" y2="1">
      <stop offset="0%" stop-color="#faf8f3"/>
      <stop offset="100%" stop-color="#f3efe5"/>
    </linearGradient>

    <filter id="shadow3" x="-10%" y="-10%" width="120%" height="120%">
      <feDropShadow dx="0" dy="2" stdDeviation="2.5" flood-color="#1a1a1a" flood-opacity="0.10"/>
    </filter>

    <marker id="arr-grey" viewBox="0 0 10 10" refX="9" refY="5" markerWidth="8" markerHeight="8" orient="auto-start-reverse">
      <path d="M 0 0 L 10 5 L 0 10 z" fill="#5a5a55"/>
    </marker>
    <marker id="arr-green3" viewBox="0 0 10 10" refX="9" refY="5" markerWidth="8" markerHeight="8" orient="auto-start-reverse">
      <path d="M 0 0 L 10 5 L 0 10 z" fill="#3a7d44"/>
    </marker>

    <!-- Icona llibre -->
    <symbol id="book-icon" viewBox="0 0 40 40">
      <rect x="6" y="6" width="28" height="28" rx="2" fill="#faf8f3" stroke="#3a7d44" stroke-width="1.5"/>
      <line x1="10" y1="14" x2="30" y2="14" stroke="#3a7d44" stroke-width="1"/>
      <line x1="10" y1="20" x2="30" y2="20" stroke="#3a7d44" stroke-width="1"/>
      <line x1="10" y1="26" x2="24" y2="26" stroke="#3a7d44" stroke-width="1"/>
    </symbol>

    <!-- Icona PDF -->
    <symbol id="pdf-icon" viewBox="0 0 40 50">
      <path d="M 6 4 L 26 4 L 34 12 L 34 46 Q 34 48, 32 48 L 8 48 Q 6 48, 6 46 Z" fill="#faf0e8" stroke="#a8554a" stroke-width="1.5"/>
      <path d="M 26 4 L 26 12 L 34 12" fill="none" stroke="#a8554a" stroke-width="1.5"/>
      <text x="20" y="34" text-anchor="middle" font-size="9" font-weight="700" fill="#a8554a">PDF</text>
    </symbol>

    <!-- Icona DOCX -->
    <symbol id="docx-icon" viewBox="0 0 40 50">
      <path d="M 6 4 L 26 4 L 34 12 L 34 46 Q 34 48, 32 48 L 8 48 Q 6 48, 6 46 Z" fill="#e8eef5" stroke="#3a6a8c" stroke-width="1.5"/>
      <path d="M 26 4 L 26 12 L 34 12" fill="none" stroke="#3a6a8c" stroke-width="1.5"/>
      <text x="20" y="34" text-anchor="middle" font-size="8" font-weight="700" fill="#3a6a8c">DOCX</text>
    </symbol>

    <!-- Icona HTML -->
    <symbol id="html-icon" viewBox="0 0 40 50">
      <path d="M 6 4 L 26 4 L 34 12 L 34 46 Q 34 48, 32 48 L 8 48 Q 6 48, 6 46 Z" fill="#eaf2ec" stroke="#3a7d44" stroke-width="1.5"/>
      <path d="M 26 4 L 26 12 L 34 12" fill="none" stroke="#3a7d44" stroke-width="1.5"/>
      <text x="20" y="34" text-anchor="middle" font-size="9" font-weight="700" fill="#3a7d44">HTML</text>
    </symbol>

    <!-- Icona terminal/script -->
    <symbol id="term-icon" viewBox="0 0 40 40">
      <rect x="3" y="5" width="34" height="30" rx="2" fill="#2a2a25"/>
      <text x="8" y="17" font-size="9" font-family="monospace" fill="#3a7d44">&gt;_</text>
      <line x1="6" y1="22" x2="34" y2="22" stroke="#3a7d44" stroke-width="0.5" opacity="0.5"/>
      <line x1="6" y1="26" x2="28" y2="26" stroke="#3a7d44" stroke-width="0.5" opacity="0.5"/>
      <line x1="6" y1="30" x2="32" y2="30" stroke="#3a7d44" stroke-width="0.5" opacity="0.5"/>
    </symbol>
  </defs>

  <rect width="1400" height="900" fill="url(#bg3)"/>

  <!-- ========== TITOL ========== -->
  <text x="700" y="40" text-anchor="middle" font-size="26" font-weight="700" fill="#2a2a25">BernatLab — Arquitectura del Curs i la Documentació</text>
  <text x="700" y="62" text-anchor="middle" font-size="14" fill="#7a7a75">L'arbre jeràrquic: 8 mòduls · capítols · artefactes · scripts · recursos</text>
  <line x1="40" y1="80" x2="1360" y2="80" stroke="#c4bfae" stroke-width="1"/>

  <!-- ========== ARREL ========== -->
  <g>
    <rect x="540" y="100" width="320" height="70" rx="10" fill="#3a7d44" stroke="#2a5d34" stroke-width="2" filter="url(#shadow3)"/>
    <use href="#book-icon" x="555" y="115" width="40" height="40"/>
    <text x="700" y="130" text-anchor="middle" font-size="18" font-weight="700" fill="#faf8f3">BernatLab</text>
    <text x="700" y="148" text-anchor="middle" font-size="11" fill="#eaf2ec">Llibre tècnic + Curs + Documentació operativa</text>
    <text x="700" y="162" text-anchor="middle" font-size="10" fill="#c4e0cc">562 pàgines · 69 capítols · 8 mòduls · 303 comandes</text>
  </g>

  <!-- ========== NIVELL 1: 3 BRANQUES PRINCIPALS ========== -->
  <!-- Línies verticals des de l'arrel -->
  <line x1="700" y1="170" x2="700" y2="195" stroke="#5a5a55" stroke-width="2"/>
  <line x1="240" y1="195" x2="1160" y2="195" stroke="#5a5a55" stroke-width="2"/>
  <line x1="240" y1="195" x2="240" y2="225" stroke="#5a5a55" stroke-width="2"/>
  <line x1="700" y1="195" x2="700" y2="225" stroke="#5a5a55" stroke-width="2"/>
  <line x1="1160" y1="195" x2="1160" y2="225" stroke="#5a5a55" stroke-width="2"/>

  <!-- Branca 1: LLIBRE -->
  <g>
    <rect x="80" y="225" width="320" height="65" rx="8" fill="#ffffff" stroke="#3a7d44" stroke-width="2" filter="url(#shadow3)"/>
    <text x="240" y="252" text-anchor="middle" font-size="15" font-weight="700" fill="#3a7d44">📖 Llibre tècnic (book/)</text>
    <text x="240" y="270" text-anchor="middle" font-size="11" fill="#5a5a55">Markdown font de veritat</text>
    <text x="240" y="284" text-anchor="middle" font-size="10" fill="#7a7a75">chapters/ · output/ · wiki/ · cheatsheet</text>
  </g>

  <!-- Branca 2: CURS -->
  <g>
    <rect x="540" y="225" width="320" height="65" rx="8" fill="#ffffff" stroke="#3a7d44" stroke-width="2" filter="url(#shadow3)"/>
    <text x="700" y="252" text-anchor="middle" font-size="15" font-weight="700" fill="#3a7d44">🎓 Curs (book/curs/)</text>
    <text x="700" y="270" text-anchor="middle" font-size="11" fill="#5a5a55">Resums, quiz, exercicis, respostes</text>
    <text x="700" y="284" text-anchor="middle" font-size="10" fill="#7a7a75">M1–M8 · 80+ capítols · repàs espaiat</text>
  </g>

  <!-- Branca 3: HOMELAB -->
  <g>
    <rect x="1000" y="225" width="320" height="65" rx="8" fill="#ffffff" stroke="#3a7d44" stroke-width="2" filter="url(#shadow3)"/>
    <text x="1160" y="252" text-anchor="middle" font-size="15" font-weight="700" fill="#3a7d44">🖥️ Homelab &amp; Scripts</text>
    <text x="1160" y="270" text-anchor="middle" font-size="11" fill="#5a5a55">Configuració i eines operatives</text>
    <text x="1160" y="284" text-anchor="middle" font-size="10" fill="#7a7a75">homelab/ · bin/ · projects/hort-osona/</text>
  </g>

  <!-- =====================================================
       BRANCA 1: LLIBRE — detall
       ===================================================== -->
  <line x1="240" y1="290" x2="240" y2="320" stroke="#5a5a55" stroke-width="1.5"/>
  <line x1="80" y1="320" x2="400" y2="320" stroke="#5a5a55" stroke-width="1.5"/>
  <line x1="80" y1="320" x2="80" y2="345" stroke="#5a5a55" stroke-width="1.5"/>
  <line x1="240" y1="320" x2="240" y2="345" stroke="#5a5a55" stroke-width="1.5"/>
  <line x1="400" y1="320" x2="400" y2="345" stroke="#5a5a55" stroke-width="1.5"/>

  <g transform="translate(20, 345)">
    <rect x="0" y="0" width="120" height="100" rx="6" fill="#faf8f3" stroke="#a89065" stroke-width="1.5" filter="url(#shadow3)"/>
    <text x="60" y="22" text-anchor="middle" font-size="12" font-weight="700" fill="#3a3a35">chapters/</text>
    <text x="60" y="42" text-anchor="middle" font-size="10" fill="#5a5a55">Markdown</text>
    <text x="60" y="58" text-anchor="middle" font-size="10" fill="#5a5a55">69 fitxers .md</text>
    <text x="60" y="78" text-anchor="middle" font-size="9" fill="#7a7a75">00-proleg.md</text>
    <text x="60" y="91" text-anchor="middle" font-size="9" fill="#7a7a75">01..69-capitol.md</text>
  </g>

  <g transform="translate(160, 345)">
    <rect x="0" y="0" width="160" height="100" rx="6" fill="#faf8f3" stroke="#a89065" stroke-width="1.5" filter="url(#shadow3)"/>
    <use href="#pdf-icon" x="10" y="8" width="30" height="38"/>
    <use href="#docx-icon" x="42" y="8" width="30" height="38"/>
    <use href="#html-icon" x="74" y="8" width="30" height="38"/>
    <use href="#book-icon" x="106" y="8" width="30" height="38"/>
    <text x="80" y="62" text-anchor="middle" font-size="12" font-weight="700" fill="#3a3a35">output/ i wiki/</text>
    <text x="80" y="78" text-anchor="middle" font-size="10" fill="#5a5a55">PDF + DOCX + HTML</text>
    <text x="80" y="91" text-anchor="middle" font-size="9" fill="#7a7a75">7 mòduls × 2 formats + wiki</text>
  </g>

  <g transform="translate(340, 345)">
    <rect x="0" y="0" width="120" height="100" rx="6" fill="#faf8f3" stroke="#a89065" stroke-width="1.5" filter="url(#shadow3)"/>
    <text x="60" y="22" text-anchor="middle" font-size="12" font-weight="700" fill="#3a3a35">Scripts .py</text>
    <text x="60" y="42" text-anchor="middle" font-size="10" fill="#5a5a55">build pipeline</text>
    <text x="60" y="58" text-anchor="middle" font-size="9" fill="#3a3a35" font-family="monospace">make_book.py</text>
    <text x="60" y="70" text-anchor="middle" font-size="9" fill="#3a3a35" font-family="monospace">build_wiki.py</text>
    <text x="60" y="82" text-anchor="middle" font-size="9" fill="#3a3a35" font-family="monospace">extract_cheatsheet.py</text>
    <text x="60" y="94" text-anchor="middle" font-size="9" fill="#3a3a35" font-family="monospace">build_cheatsheet.py</text>
  </g>

  <!-- Cheatsheet -->
  <g transform="translate(180, 460)">
    <rect x="0" y="0" width="120" height="50" rx="6" fill="#eaf2ec" stroke="#3a7d44" stroke-width="1.5" filter="url(#shadow3)"/>
    <text x="60" y="20" text-anchor="middle" font-size="11" font-weight="700" fill="#3a7d44">cheatsheet</text>
    <text x="60" y="36" text-anchor="middle" font-size="9" fill="#3a3a35">303 comandes</text>
  </g>
  <line x1="240" y1="445" x2="240" y2="460" stroke="#5a5a55" stroke-width="1.5"/>

  <!-- =====================================================
       BRANCA 2: CURS — detall (8 MÒDULS)
       ===================================================== -->
  <line x1="700" y1="290" x2="700" y2="320" stroke="#5a5a55" stroke-width="1.5"/>
  <line x1="100" y1="320" x2="1300" y2="320" stroke="#5a5a55" stroke-width="1.5"/>

  <!-- 8 línies verticals pels mòduls -->
  <g stroke="#5a5a55" stroke-width="1.2">
    <line x1="160" y1="320" x2="160" y2="350"/>
    <line x1="305" y1="320" x2="305" y2="350"/>
    <line x1="450" y1="320" x2="450" y2="350"/>
    <line x1="595" y1="320" x2="595" y2="350"/>
    <line x1="740" y1="320" x2="740" y2="350"/>
    <line x1="885" y1="320" x2="885" y2="350"/>
    <line x1="1030" y1="320" x2="1030" y2="350"/>
    <line x1="1180" y1="320" x2="1180" y2="350"/>
  </g>

  <!-- M1 -->
  <g transform="translate(100, 350)">
    <rect x="0" y="0" width="120" height="120" rx="6" fill="#3a7d44" stroke="#2a5d34" stroke-width="1.5" filter="url(#shadow3)"/>
    <text x="60" y="25" text-anchor="middle" font-size="20" font-weight="800" fill="#faf8f3">M1</text>
    <text x="60" y="46" text-anchor="middle" font-size="10" font-weight="600" fill="#eaf2ec">Fonaments</text>
    <text x="60" y="62" text-anchor="middle" font-size="9" fill="#c4e0cc">10 cap.</text>
    <line x1="14" y1="72" x2="106" y2="72" stroke="#2a5d34" stroke-width="1"/>
    <text x="60" y="86" text-anchor="middle" font-size="9" fill="#eaf2ec">homelab, RPi,</text>
    <text x="60" y="98" text-anchor="middle" font-size="9" fill="#eaf2ec">Linux, xarxa,</text>
    <text x="60" y="110" text-anchor="middle" font-size="9" fill="#eaf2ec">Docker, Portainer</text>
  </g>

  <!-- M2 -->
  <g transform="translate(245, 350)">
    <rect x="0" y="0" width="120" height="120" rx="6" fill="#4a8d54" stroke="#2a5d34" stroke-width="1.5" filter="url(#shadow3)"/>
    <text x="60" y="25" text-anchor="middle" font-size="20" font-weight="800" fill="#faf8f3">M2</text>
    <text x="60" y="46" text-anchor="middle" font-size="10" font-weight="600" fill="#eaf2ec">Contenidors</text>
    <text x="60" y="62" text-anchor="middle" font-size="9" fill="#c4e0cc">10 cap.</text>
    <line x1="14" y1="72" x2="106" y2="72" stroke="#3a6d44" stroke-width="1"/>
    <text x="60" y="86" text-anchor="middle" font-size="9" fill="#eaf2ec">volums, xarxes,</text>
    <text x="60" y="98" text-anchor="middle" font-size="9" fill="#eaf2ec">Uptime Kuma,</text>
    <text x="60" y="110" text-anchor="middle" font-size="9" fill="#eaf2ec">Homepage</text>
  </g>

  <!-- M3 -->
  <g transform="translate(390, 350)">
    <rect x="0" y="0" width="120" height="120" rx="6" fill="#5a9d64" stroke="#2a5d34" stroke-width="1.5" filter="url(#shadow3)"/>
    <text x="60" y="25" text-anchor="middle" font-size="20" font-weight="800" fill="#faf8f3">M3</text>
    <text x="60" y="46" text-anchor="middle" font-size="10" font-weight="600" fill="#eaf2ec">Dades</text>
    <text x="60" y="62" text-anchor="middle" font-size="9" fill="#c4e0cc">10 cap.</text>
    <line x1="14" y1="72" x2="106" y2="72" stroke="#3a6d44" stroke-width="1"/>
    <text x="60" y="86" text-anchor="middle" font-size="9" fill="#eaf2ec">backup, restic,</text>
    <text x="60" y="98" text-anchor="middle" font-size="9" fill="#eaf2ec">SQLite, Postgres,</text>
    <text x="60" y="110" text-anchor="middle" font-size="9" fill="#eaf2ec">InfluxDB, Grafana</text>
  </g>

  <!-- M4 -->
  <g transform="translate(535, 350)">
    <rect x="0" y="0" width="120" height="120" rx="6" fill="#6aad74" stroke="#2a5d34" stroke-width="1.5" filter="url(#shadow3)"/>
    <text x="60" y="25" text-anchor="middle" font-size="20" font-weight="800" fill="#faf8f3">M4</text>
    <text x="60" y="46" text-anchor="middle" font-size="10" font-weight="600" fill="#eaf2ec">Intel·ligència</text>
    <text x="60" y="62" text-anchor="middle" font-size="9" fill="#c4e0cc">10 cap.</text>
    <line x1="14" y1="72" x2="106" y2="72" stroke="#3a6d44" stroke-width="1"/>
    <text x="60" y="86" text-anchor="middle" font-size="9" fill="#eaf2ec">Ollama, models</text>
    <text x="60" y="98" text-anchor="middle" font-size="9" fill="#eaf2ec">locals, RAG,</text>
    <text x="60" y="110" text-anchor="middle" font-size="9" fill="#eaf2ec">embeddings</text>
  </g>

  <!-- M5 -->
  <g transform="translate(680, 350)">
    <rect x="0" y="0" width="120" height="120" rx="6" fill="#7abd84" stroke="#2a5d34" stroke-width="1.5" filter="url(#shadow3)"/>
    <text x="60" y="25" text-anchor="middle" font-size="20" font-weight="800" fill="#faf8f3">M5</text>
    <text x="60" y="46" text-anchor="middle" font-size="10" font-weight="600" fill="#eaf2ec">Seguretat</text>
    <text x="60" y="62" text-anchor="middle" font-size="9" fill="#c4e0cc">10 cap.</text>
    <line x1="14" y1="72" x2="106" y2="72" stroke="#3a6d44" stroke-width="1"/>
    <text x="60" y="86" text-anchor="middle" font-size="9" fill="#eaf2ec">SSH claus,</text>
    <text x="60" y="98" text-anchor="middle" font-size="9" fill="#eaf2ec">Tailscale,</text>
    <text x="60" y="110" text-anchor="middle" font-size="9" fill="#eaf2ec">firewall</text>
  </g>

  <!-- M6 -->
  <g transform="translate(825, 350)">
    <rect x="0" y="0" width="120" height="120" rx="6" fill="#8acd94" stroke="#2a5d34" stroke-width="1.5" filter="url(#shadow3)"/>
    <text x="60" y="25" text-anchor="middle" font-size="20" font-weight="800" fill="#faf8f3">M6</text>
    <text x="60" y="46" text-anchor="middle" font-size="10" font-weight="600" fill="#1a3a24">Operativa</text>
    <text x="60" y="62" text-anchor="middle" font-size="9" fill="#3a5d44">10 cap.</text>
    <line x1="14" y1="72" x2="106" y2="72" stroke="#5a8d64" stroke-width="1"/>
    <text x="60" y="86" text-anchor="middle" font-size="9" fill="#1a3a24">monitor 24/7,</text>
    <text x="60" y="98" text-anchor="middle" font-size="9" fill="#1a3a24">alertes,</text>
    <text x="60" y="110" text-anchor="middle" font-size="9" fill="#1a3a24">manteniment</text>
  </g>

  <!-- M7 -->
  <g transform="translate(970, 350)">
    <rect x="0" y="0" width="120" height="120" rx="6" fill="#9adda4" stroke="#2a5d34" stroke-width="1.5" filter="url(#shadow3)"/>
    <text x="60" y="25" text-anchor="middle" font-size="20" font-weight="800" fill="#1a3a24">M7</text>
    <text x="60" y="46" text-anchor="middle" font-size="10" font-weight="600" fill="#1a3a24">Hort Osona</text>
    <text x="60" y="62" text-anchor="middle" font-size="9" fill="#3a5d44">12 cap.</text>
    <line x1="14" y1="72" x2="106" y2="72" stroke="#5a8d64" stroke-width="1"/>
    <text x="60" y="86" text-anchor="middle" font-size="9" fill="#1a3a24">MiFlora, LoRa,</text>
    <text x="60" y="98" text-anchor="middle" font-size="9" fill="#1a3a24">sensors,</text>
    <text x="60" y="110" text-anchor="middle" font-size="9" fill="#1a3a24">aplicació pràctica</text>
  </g>

  <!-- M8 -->
  <g transform="translate(1120, 350)">
    <rect x="0" y="0" width="120" height="120" rx="6" fill="#aaedb4" stroke="#2a5d34" stroke-width="1.5" filter="url(#shadow3)"/>
    <text x="60" y="25" text-anchor="middle" font-size="20" font-weight="800" fill="#1a3a24">M8</text>
    <text x="60" y="46" text-anchor="middle" font-size="10" font-weight="600" fill="#1a3a24">Eines PC</text>
    <text x="60" y="62" text-anchor="middle" font-size="9" fill="#3a5d44">7 cap.</text>
    <line x1="14" y1="72" x2="106" y2="72" stroke="#5a8d64" stroke-width="1"/>
    <text x="60" y="86" text-anchor="middle" font-size="9" fill="#1a3a24">MobaXterm,</text>
    <text x="60" y="98" text-anchor="middle" font-size="9" fill="#1a3a24">PowerToys,</text>
    <text x="60" y="110" text-anchor="middle" font-size="9" fill="#1a3a24">Obsidian + Git</text>
  </g>

  <!-- Capítols exemple (zoom dins d'un mòdul) -->
  <g transform="translate(100, 490)">
    <rect x="0" y="0" width="120" height="80" rx="5" fill="#ffffff" stroke="#a89065" stroke-width="1"/>
    <text x="60" y="18" text-anchor="middle" font-size="10" font-weight="700" fill="#3a3a35">Capítols M1</text>
    <text x="60" y="34" text-anchor="middle" font-size="9" fill="#3a3a35" font-family="monospace">01-que-es-bernatlab</text>
    <text x="60" y="46" text-anchor="middle" font-size="9" fill="#3a3a35" font-family="monospace">04-xarxa-ssh-tailscale</text>
    <text x="60" y="58" text-anchor="middle" font-size="9" fill="#3a3a35" font-family="monospace">05-docker-des-de-zero</text>
    <text x="60" y="70" text-anchor="middle" font-size="9" fill="#5a5a55">+ 7 més...</text>
  </g>

  <!-- Estructura interna d'un capítol -->
  <g transform="translate(260, 490)">
    <rect x="0" y="0" width="640" height="80" rx="6" fill="#faf8f3" stroke="#3a7d44" stroke-width="1.5" filter="url(#shadow3)"/>
    <text x="320" y="20" text-anchor="middle" font-size="12" font-weight="700" fill="#3a7d44">Estructura estàndard d'un capítol (8 seccions)</text>
    <g font-size="10" fill="#3a3a35">
      <text x="20" y="42" font-weight="600">1. resum.md</text>
      <text x="120" y="42">— idees clau</text>
      <text x="220" y="42" font-weight="600">2. quiz.md</text>
      <text x="290" y="42">— qüestionari</text>
      <text x="400" y="42" font-weight="600">3. exercici.md</text>
      <text x="490" y="42">— pràctica</text>
      <text x="20" y="62" font-weight="600">4. respostes.md</text>
      <text x="120" y="62">— autoavaluació</text>
      <text x="220" y="62" font-weight="600">5. N.html</text>
      <text x="290" y="62">— wiki generada</text>
      <text x="400" y="62" font-weight="600">6. quiz.py</text>
      <text x="490" y="62">— script repàs espaiat</text>
    </g>
  </g>

  <!-- Línies que connecten blocs a l'estructura -->
  <line x1="220" y1="490" x2="260" y2="490" stroke="#5a5a55" stroke-width="1.5" marker-end="url(#arr-grey)"/>

  <!-- =====================================================
       BRANCA 3: HOMELAB + BIN + PROJECTS
       ===================================================== -->
  <line x1="1160" y1="290" x2="1160" y2="320" stroke="#5a5a55" stroke-width="1.5"/>
  <line x1="1040" y1="320" x2="1280" y2="320" stroke="#5a5a55" stroke-width="1.5"/>
  <line x1="1040" y1="320" x2="1040" y2="345" stroke="#5a5a55" stroke-width="1.5"/>
  <line x1="1160" y1="320" x2="1160" y2="345" stroke="#5a5a55" stroke-width="1.5"/>
  <line x1="1280" y1="320" x2="1280" y2="345" stroke="#5a5a55" stroke-width="1.5"/>

  <!-- homelab/ -->
  <g transform="translate(980, 345)">
    <rect x="0" y="0" width="120" height="120" rx="6" fill="#ffffff" stroke="#3a6a8c" stroke-width="1.5" filter="url(#shadow3)"/>
    <text x="60" y="22" text-anchor="middle" font-size="12" font-weight="700" fill="#3a3a35">homelab/</text>
    <text x="60" y="38" text-anchor="middle" font-size="10" fill="#5a5a55">Configuració RPi</text>
    <line x1="14" y1="48" x2="106" y2="48" stroke="#c4bfae" stroke-width="0.8"/>
    <text x="60" y="65" text-anchor="middle" font-size="9" fill="#3a3a35" font-family="monospace">compose/</text>
    <text x="60" y="80" text-anchor="middle" font-size="9" fill="#3a3a35" font-family="monospace">scripts/</text>
    <text x="60" y="95" text-anchor="middle" font-size="9" fill="#3a3a35" font-family="monospace">docs/</text>
    <text x="60" y="110" text-anchor="middle" font-size="9" fill="#3a3a35" font-family="monospace">data/</text>
  </g>

  <!-- bin/ -->
  <g transform="translate(1100, 345)">
    <rect x="0" y="0" width="120" height="120" rx="6" fill="#ffffff" stroke="#3a6a8c" stroke-width="1.5" filter="url(#shadow3)"/>
    <use href="#term-icon" x="48" y="6" width="24" height="24"/>
    <text x="60" y="48" text-anchor="middle" font-size="12" font-weight="700" fill="#3a3a35">bin/</text>
    <text x="60" y="62" text-anchor="middle" font-size="10" fill="#5a5a55">Scripts Windows</text>
    <line x1="14" y1="72" x2="106" y2="72" stroke="#c4bfae" stroke-width="0.8"/>
    <text x="60" y="86" text-anchor="middle" font-size="9" fill="#3a3a35" font-family="monospace">.bat / .ps1 / .sh</text>
    <text x="60" y="100" text-anchor="middle" font-size="9" fill="#3a3a35">web launcher,</text>
    <text x="60" y="112" text-anchor="middle" font-size="9" fill="#3a3a35">accés directe</text>
  </g>

  <!-- projects/ -->
  <g transform="translate(1220, 345)">
    <rect x="0" y="0" width="120" height="120" rx="6" fill="#ffffff" stroke="#3a6a8c" stroke-width="1.5" filter="url(#shadow3)"/>
    <text x="60" y="22" text-anchor="middle" font-size="12" font-weight="700" fill="#3a3a35">projects/</text>
    <text x="60" y="38" text-anchor="middle" font-size="10" fill="#5a5a55">Subprojectes</text>
    <line x1="14" y1="48" x2="106" y2="48" stroke="#c4bfae" stroke-width="0.8"/>
    <text x="60" y="66" text-anchor="middle" font-size="10" font-weight="600" fill="#3a7d44">hort-osona/</text>
    <text x="60" y="80" text-anchor="middle" font-size="9" fill="#3a3a35" font-style="italic">git submodule</text>
    <text x="60" y="96" text-anchor="middle" font-size="9" fill="#3a3a35">web pública,</text>
    <text x="60" y="108" text-anchor="middle" font-size="9" fill="#3a3a35">repo independent</text>
  </g>

  <!-- ========== NIVELL FINAL: RECURSOS TRANSVERSALS ========== -->
  <line x1="160" y1="610" x2="1240" y2="610" stroke="#5a5a55" stroke-width="1.5" stroke-dasharray="5,4"/>
  <text x="700" y="603" text-anchor="middle" font-size="11" font-weight="600" fill="#5a5a55" font-style="italic">Recursos transversals</text>

  <g transform="translate(160, 625)">
    <rect x="0" y="0" width="200" height="85" rx="6" fill="#faf8f3" stroke="#a89065" stroke-width="1.5" filter="url(#shadow3)"/>
    <text x="100" y="22" text-anchor="middle" font-size="12" font-weight="700" fill="#3a3a35">COMANDES.md</text>
    <text x="100" y="40" text-anchor="middle" font-size="10" fill="#5a5a55">workflow del repo</text>
    <text x="100" y="58" text-anchor="middle" font-size="9" fill="#3a3a35" font-family="monospace">git, rsync,</text>
    <text x="100" y="72" text-anchor="middle" font-size="9" fill="#3a3a35" font-family="monospace">submodule, ssh</text>
  </g>

  <g transform="translate(400, 625)">
    <rect x="0" y="0" width="200" height="85" rx="6" fill="#faf8f3" stroke="#a89065" stroke-width="1.5" filter="url(#shadow3)"/>
    <text x="100" y="22" text-anchor="middle" font-size="12" font-weight="700" fill="#3a3a35">cheatsheet-curs.md</text>
    <text x="100" y="40" text-anchor="middle" font-size="10" fill="#5a5a55">303 comandes</text>
    <text x="100" y="58" text-anchor="middle" font-size="9" fill="#3a3a35">imprimible,</text>
    <text x="100" y="72" text-anchor="middle" font-size="9" fill="#3a3a35">20 categories</text>
  </g>

  <g transform="translate(640, 625)">
    <rect x="0" y="0" width="200" height="85" rx="6" fill="#faf8f3" stroke="#a89065" stroke-width="1.5" filter="url(#shadow3)"/>
    <text x="100" y="22" text-anchor="middle" font-size="12" font-weight="700" fill="#3a3a35">recursos/</text>
    <text x="100" y="40" text-anchor="middle" font-size="10" fill="#5a5a55">docs operatives</text>
    <text x="100" y="58" text-anchor="middle" font-size="9" fill="#3a3a35" font-style="italic">recuperacio-emergencia</text>
    <text x="100" y="72" text-anchor="middle" font-size="9" fill="#3a3a35" font-style="italic">-tailscale.md</text>
  </g>

  <g transform="translate(880, 625)">
    <rect x="0" y="0" width="200" height="85" rx="6" fill="#faf8f3" stroke="#a89065" stroke-width="1.5" filter="url(#shadow3)"/>
    <text x="100" y="22" text-anchor="middle" font-size="12" font-weight="700" fill="#3a3a35">BernatLab_resum_1pag.pdf</text>
    <text x="100" y="40" text-anchor="middle" font-size="10" fill="#5a5a55">resum executiu</text>
    <text x="100" y="58" text-anchor="middle" font-size="9" fill="#3a3a35">1 pàgina,</text>
    <text x="100" y="72" text-anchor="middle" font-size="9" fill="#3a3a35">a imprimir</text>
  </g>

  <g transform="translate(1120, 625)">
    <rect x="0" y="0" width="120" height="85" rx="6" fill="#faf8f3" stroke="#a89065" stroke-width="1.5" filter="url(#shadow3)"/>
    <text x="60" y="22" text-anchor="middle" font-size="12" font-weight="700" fill="#3a3a35">backups/</text>
    <text x="60" y="40" text-anchor="middle" font-size="10" fill="#5a5a55">còpies manuals</text>
    <text x="60" y="58" text-anchor="middle" font-size="9" fill="#3a3a35" font-style="italic">versions anteriors</text>
    <text x="60" y="72" text-anchor="middle" font-size="9" fill="#3a3a35" font-style="italic">del llibre</text>
  </g>

  <!-- ========== LLEGENDA I NOTES ========== -->
  <g transform="translate(40, 745)">
    <rect x="0" y="0" width="1320" height="120" rx="10" fill="#ffffff" stroke="#c4bfae" stroke-width="1" filter="url(#shadow3)"/>
    <text x="20" y="25" font-size="13" font-weight="700" fill="#3a3a35">Llegendes i notes</text>

    <g transform="translate(20, 40)">
      <rect x="0" y="0" width="22" height="22" rx="3" fill="#3a7d44"/>
      <text x="32" y="15" font-size="11" font-weight="600" fill="#3a7d44">Curs — Mòduls</text>
      <text x="32" y="30" font-size="9" fill="#5a5a55">8 mòduls, color per progressió</text>
    </g>
    <g transform="translate(220, 40)">
      <rect x="0" y="0" width="22" height="22" rx="3" fill="#ffffff" stroke="#3a7d44" stroke-width="1.5"/>
      <text x="32" y="15" font-size="11" font-weight="600" fill="#3a7d44">Llibre / Homelab</text>
      <text x="32" y="30" font-size="9" fill="#5a5a55">seccions principals del repo</text>
    </g>
    <g transform="translate(440, 40)">
      <rect x="0" y="0" width="22" height="22" rx="3" fill="#faf8f3" stroke="#a89065" stroke-width="1.5"/>
      <text x="32" y="15" font-size="11" font-weight="600" fill="#a89065">Artefactes</text>
      <text x="32" y="30" font-size="9" fill="#5a5a55">generats (PDF/DOCX/HTML)</text>
    </g>
    <g transform="translate(620, 40)">
      <rect x="0" y="0" width="22" height="22" rx="3" fill="#ffffff" stroke="#3a6a8c" stroke-width="1.5"/>
      <text x="32" y="15" font-size="11" font-weight="600" fill="#3a6a8c">Config. i scripts</text>
      <text x="32" y="30" font-size="9" fill="#5a5a55">homelab, bin, projects</text>
    </g>
    <g transform="translate(820, 40)">
      <line x1="0" y1="11" x2="22" y2="11" stroke="#5a5a55" stroke-width="2"/>
      <text x="32" y="15" font-size="11" font-weight="600" fill="#3a3a35">Relació directa</text>
      <text x="32" y="30" font-size="9" fill="#5a5a55">"és part de" o "genera"</text>
    </g>
    <g transform="translate(1000, 40)">
      <line x1="0" y1="11" x2="22" y2="11" stroke="#5a5a55" stroke-width="1.5" stroke-dasharray="5,4"/>
      <text x="32" y="15" font-size="11" font-weight="600" fill="#3a3a35">Vincle transversal</text>
      <text x="32" y="30" font-size="9" fill="#5a5a55">referències compartides</text>
    </g>

    <text x="20" y="92" font-size="10" fill="#7a7a75" font-style="italic">Cada mòdul té entre 7 i 12 capítols amb 4 fitxers cadascun (resum, quiz, exercici, respostes) + versió HTML generada.</text>
    <text x="20" y="108" font-size="10" fill="#7a7a75" font-style="italic">El llibre, el curs, l'homelab i els scripts comparteixen el mateix repo Git i es publiquen de forma independent.</text>
  </g>

  <text x="700" y="885" text-anchor="middle" font-size="10" fill="#8a8a85" font-style="italic">BernatLab · Curs i documentació — book/curs/ + book/chapters/ + homelab/</text>
</svg>
